<svg width="30" height="24" viewBox="0 0 30 24" fill="none" xmlns="http://www.w3.org/2000/svg">
<path d="M10.1538 0.00305176C6.21923 0.00305176 3.00174 3.18902 3.00175 7.10438C3.03928 8.07791 3.20137 9.16544 3.40017 10.0066H1.99593C0.632379 9.97638 0.632379 12.0371 1.99593 12.0065H4.02515C5.77753 16.5603 9.69898 21.1133 14.5091 23.8674C14.8155 24.0416 15.1909 24.0416 15.4974 23.8674C18.6774 22.0467 21.5123 19.3152 23.581 16.3247C24.5508 14.9228 25.3471 13.464 25.9305 12.0065H28.0027C29.3663 12.0367 29.3663 9.976 28.0027 10.0066H26.5848C26.8492 8.9982 26.9856 8.05807 26.9988 7.10438C26.9989 3.18902 23.7794 0.00305176 19.8448 0.00305176C18.0133 0.00305176 16.2914 0.699318 14.9935 1.88778C13.6966 0.702266 11.9836 0.00305176 10.1538 0.00305176ZM10.1538 2.00496C11.7475 2.00496 13.2158 2.72449 14.1771 3.91495C14.55 4.37698 15.241 4.41428 15.6614 3.99511C16.9013 2.90612 18.4472 2.02768 19.8448 2.00496C22.6608 2.00496 24.9181 4.20634 24.9911 6.96759C24.9283 8.03776 24.7639 9.14103 24.5087 10.0066H20.0011C19.736 10.0046 19.4811 10.1079 19.2921 10.2938L18.2726 11.3134L16.8938 8.55959C16.5245 7.82503 15.476 7.82503 15.1067 8.55959L14.1029 10.5673L12.9291 7.62986C12.7761 7.24705 12.4039 6.99741 11.9916 7.00104C11.6583 7.00433 11.3485 7.17332 11.1655 7.45212L9.46633 10.0067H5.51532C5.22986 8.94223 5.03769 7.89728 5.01144 6.92284C5.10782 4.18279 7.35319 2.00508 10.1538 2.00508V2.00496ZM11.7768 10.1394L13.0697 13.3717C13.3877 14.1732 14.5031 14.2233 14.8919 13.4537L15.9993 11.239L17.1067 13.4537C17.4128 14.0634 18.2261 14.1944 18.7082 13.7115L20.4132 12.0065H23.749C23.2676 13.0662 22.6576 14.1427 21.9346 15.1879C20.1563 17.7586 17.6531 20.0239 15.0032 21.6682C11.1791 19.2952 7.97997 15.5725 6.30045 12.0065H9.99757C10.3344 12.0064 10.6486 11.8367 10.8335 11.5553L11.7768 10.1394Z" fill="#00A3A3"/>
</svg>
