<svg width="28" height="16" viewBox="0 0 28 16" fill="none" xmlns="http://www.w3.org/2000/svg">
<path d="M26.7066 1.53333C26.5039 1.41631 26.274 1.3547 26.04 1.3547C25.8059 1.3547 25.576 1.41631 25.3733 1.53333L20.6666 3.85333C20.6286 2.81809 20.1905 1.83796 19.4444 1.11925C18.6984 0.40054 17.7026 -0.0006957 16.6666 9.05542e-07H4.66663C3.60576 9.05542e-07 2.58834 0.421428 1.8382 1.17157C1.08805 1.92172 0.666626 2.93913 0.666626 4V12C0.666626 13.0609 1.08805 14.0783 1.8382 14.8284C2.58834 15.5786 3.60576 16 4.66663 16H16.6666C17.7026 16.0007 18.6984 15.5995 19.4444 14.8807C20.1905 14.162 20.6286 13.1819 20.6666 12.1467L25.4133 14.52C25.595 14.6132 25.7958 14.6634 26 14.6667C26.2496 14.6675 26.4944 14.5982 26.7066 14.4667C26.8988 14.3466 27.0572 14.1795 27.1668 13.9812C27.2764 13.7829 27.3337 13.5599 27.3333 13.3333V2.66667C27.3337 2.44008 27.2764 2.21711 27.1668 2.01881C27.0572 1.82051 26.8988 1.65343 26.7066 1.53333ZM18 12C18 12.3536 17.8595 12.6928 17.6094 12.9428C17.3594 13.1929 17.0202 13.3333 16.6666 13.3333H4.66663C4.313 13.3333 3.97387 13.1929 3.72382 12.9428C3.47377 12.6928 3.33329 12.3536 3.33329 12V4C3.33329 3.64638 3.47377 3.30724 3.72382 3.05719C3.97387 2.80714 4.313 2.66667 4.66663 2.66667H16.6666C17.0202 2.66667 17.3594 2.80714 17.6094 3.05719C17.8595 3.30724 18 3.64638 18 4V12ZM24.6666 11.1733L20.6666 9.17333V6.82667L24.6666 4.82667V11.1733Z" fill="#0069A3"/>
</svg>
